<svg width="275.1039431989193" height="74.54189395904541" xmlns="http://www.w3.org/2000/svg" version="1.1">
 <g>
  <title>Layer 1</title>
  <path id="path0" d="m34.89193,0.22455c-11.434,2.21 -16.475,14.96 -9.531,24.104l1.031,1.357l-3.046,5.573c-1.675,3.066 -3.429,6.325 -3.897,7.242l-0.851,1.668l0.119,2.689c0.191,4.299 1.369,8.819 3.152,12.094c1.422,2.611 1.564,2.848 2.49,4.158c4.033,5.705 12.128,11.445 20.533,14.559c4.08,1.512 6.484,0.875 7.236,-1.917c0.665,-2.47 -0.434,-3.914 -3.969,-5.217c-12.012,-4.424 -19.73,-12.206 -21.476,-21.655c-0.458,-2.475 -0.431,-2.62 0.943,-5.152c0.688,-1.265 1.334,-2.487 1.436,-2.715c0.102,-0.227 1.073,-2.019 2.157,-3.981l1.971,-3.568l0.999,0.266c10.242,2.728 20.211,-7.573 17.655,-18.244c-1.766,-7.371 -9.725,-12.658 -16.952,-11.261m5.414,8.349c5.704,2.683 5.356,11.077 -0.552,13.287c-3.243,1.214 -7.067,-0.199 -8.741,-3.229c-3.392,-6.143 2.972,-13.03 9.293,-10.058m-4.985,3.04c-2.678,1.326 -2.634,5.566 0.073,6.956c4.068,2.088 7.865,-3.306 4.523,-6.428c-1.137,-1.061 -3.07,-1.283 -4.596,-0.528m-22.405,3.457c-5.354,1.439 -7.366,8.511 -3.587,12.61c2.845,3.087 8.464,3.102 11.295,0.032c5.131,-5.567 -0.383,-14.61 -7.708,-12.642m-9.608,33.239c-0.109,0.04 -0.437,0.125 -0.728,0.189c-0.769,0.169 -1.75,1.069 -2.168,1.989c-0.479,1.056 -0.574,20.627 -0.105,21.747c1.159,2.768 4.758,3.118 6.751,0.656l0.606,-0.748l0.058,-8.101l0.058,-8.1l4.038,0c4.378,0 4.792,-0.075 5.813,-1.052c2.081,-1.99 1.589,-4.718 -1.131,-6.275c-0.481,-0.275 -12.515,-0.553 -13.192,-0.305" fill="#f41c1c" fill-rule="evenodd"/>
  <path id="path1" d="m66.58793,19.52855c-0.165,0.165 -0.176,31.997 -0.012,32.426c0.18,0.468 5.125,0.468 5.304,0c0.066,-0.172 0.121,-2.928 0.121,-6.124l0,-5.812l3.019,-0.085c8.475,-0.239 12.897,-3.891 12.88,-10.636c-0.014,-5.069 -2.776,-8.36 -7.969,-9.492c-1.882,-0.411 -12.979,-0.641 -13.343,-0.277m127.639,16.254l0.051,16.386l9.505,0l9.505,0l0,-2.475l0,-2.475l-6.881,-0.052l-6.882,-0.052l0,-13.859l0,-13.859l-2.674,0l-2.674,0l0.05,16.386m-117.752,-11.44c4.221,0.381 5.629,1.708 5.62,5.295c-0.01,3.902 -1.692,5.155 -7.174,5.345l-2.92,0.101l0,-5.467l0,-5.467l1.237,0.006c0.681,0.004 2.137,0.088 3.237,0.187m23.015,2.795c-4.178,0.826 -7.287,3.881 -8.247,8.101c-2.474,10.882 4.207,19.231 13.689,17.106c5.801,-1.3 8.851,-5.675 8.851,-12.696c0,-9.073 -5.838,-14.182 -14.293,-12.511m59.762,-0.097c-10.315,1.863 -12.386,19.661 -2.828,24.298c3.744,1.816 9.596,1.703 13.844,-0.268l0.544,-0.252l0,-2.444c0,-2.795 -0.029,-2.831 -1.608,-1.972c-2.426,1.318 -7.288,1.797 -9.515,0.936c-1.866,-0.721 -3.392,-2.832 -3.653,-5.057l-0.13,-1.103l7.948,0l7.949,0l0,-2.636c0,-8.247 -5.033,-12.86 -12.551,-11.502m26.115,0.056c-1.46,0.362 -2.599,0.985 -3.821,2.09l-0.738,0.666l-0.061,-1.11c-0.082,-1.493 0.038,-1.425 -2.522,-1.425l-2.267,0l0.051,12.426l0.051,12.425l2.574,0l2.574,0l0.1,-7.733l0.099,-7.734l0.741,-1.499c1.368,-2.767 4.017,-3.908 7.206,-3.105c1.225,0.308 1.346,0.122 1.623,-2.494c0.263,-2.492 0.337,-2.349 -1.375,-2.65c-1.717,-0.301 -2.558,-0.273 -4.235,0.143m38.72,-0.063c-5.119,0.891 -8.362,4.658 -8.941,10.383c-0.916,9.078 3.7,15.248 11.409,15.248c5.06,0 8.575,-2.384 10.515,-7.129l0.769,-1.881l-0.002,-3.961c-0.004,-9.26 -5.296,-14.132 -13.75,-12.66m24.15,-0.041c-2.874,0.66 -4.55,1.673 -5.769,3.489c-2.192,3.262 -1.717,8.5 0.992,10.948l0.751,0.678l-0.757,0.943c-1.274,1.587 -1.505,3.831 -0.554,5.37c0.238,0.385 0.4,0.721 0.361,0.746c-0.04,0.025 -0.332,0.176 -0.649,0.336c-3.455,1.741 -4.408,6.726 -1.893,9.901c3.622,4.573 16.98,3.973 20.582,-0.925c2.375,-3.23 1.75,-8.419 -1.242,-10.308c-1.746,-1.102 -2.682,-1.289 -7.296,-1.455c-4.751,-0.171 -5.119,-0.261 -5.119,-1.249c0,-1.081 0.872,-1.748 2.201,-1.684c7.212,0.347 12.109,-4.915 10.074,-10.827c-0.457,-1.33 -0.372,-1.471 0.893,-1.478c0.436,-0.002 1.13,-0.097 1.542,-0.212l0.75,-0.208l-0.057,-1.92l-0.056,-1.919l-4.852,-0.131c-2.668,-0.072 -5.742,-0.179 -6.831,-0.238c-1.268,-0.068 -2.373,-0.017 -3.071,0.143m-133.391,0.421c-0.098,0.254 0.698,3.433 2.13,8.518c0.215,0.762 0.57,2.054 0.788,2.871c0.218,0.817 0.563,2.109 0.767,2.871c0.204,0.763 0.562,2.055 0.796,2.872c0.235,0.817 0.589,2.109 0.787,2.871c0.198,0.762 0.547,2.091 0.777,2.952c0.229,0.862 0.417,1.6 0.417,1.64c0,0.04 1.259,0.048 2.798,0.017l2.798,-0.055l0.451,-1.386c0.248,-0.762 0.868,-2.722 1.377,-4.356c0.51,-1.634 1.045,-3.282 1.19,-3.663c0.144,-0.382 0.632,-1.897 1.084,-3.367c0.452,-1.47 0.887,-2.888 0.968,-3.151c0.123,-0.4 0.222,-0.219 0.599,1.089c0.248,0.862 0.572,1.924 0.719,2.359c0.146,0.436 0.505,1.594 0.796,2.574c0.291,0.981 0.648,2.139 0.793,2.575c0.145,0.435 0.456,1.46 0.692,2.277c0.236,0.817 0.673,2.287 0.972,3.267l0.542,1.782l2.774,0.055l2.773,0.055l0.322,-1.243c0.467,-1.807 1.413,-5.315 2.016,-7.48c0.289,-1.035 0.655,-2.372 0.814,-2.971c0.159,-0.599 0.371,-1.267 0.472,-1.485c0.216,-0.468 0.481,-1.368 1.575,-5.346c0.449,-1.634 0.956,-3.443 1.127,-4.019c0.171,-0.577 0.324,-1.335 0.339,-1.684l0.028,-0.634l-2.277,-0.057c-3.464,-0.088 -2.885,-0.886 -4.854,6.691c-0.495,1.906 -1.025,3.911 -1.177,4.455c-0.153,0.545 -0.484,1.858 -0.737,2.919c-0.528,2.215 -0.575,2.264 -0.941,0.992c-0.149,-0.517 -0.756,-2.5 -1.349,-4.406c-0.592,-1.906 -1.233,-4 -1.423,-4.653c-0.19,-0.654 -0.397,-1.322 -0.46,-1.486c-0.062,-0.163 -0.36,-1.143 -0.661,-2.178c-0.734,-2.526 -0.529,-2.376 -3.249,-2.376c-2.802,0 -2.465,-0.338 -3.751,3.762c-0.563,1.797 -1.193,3.758 -1.4,4.357c-0.207,0.599 -0.465,1.401 -0.573,1.782c-0.109,0.381 -0.48,1.45 -0.825,2.376c-0.345,0.926 -0.777,2.258 -0.96,2.96l-0.333,1.277l-0.515,-2.069c-0.283,-1.138 -0.888,-3.495 -1.343,-5.237c-0.456,-1.743 -1.145,-4.416 -1.532,-5.941c-0.387,-1.524 -0.792,-2.883 -0.899,-3.019c-0.307,-0.389 -5.072,-0.347 -5.222,0.046m138.358,4.382c1.687,0.985 2.173,4.916 0.802,6.483c-0.959,1.095 -4.15,1.446 -5.569,0.612c-2.525,-1.483 -2.228,-6.473 0.439,-7.376c1.014,-0.343 3.54,-0.179 4.328,0.281m-89.585,0.145c0.919,0.48 1.618,1.361 2.143,2.702c0.846,2.157 1.258,1.982 -4.666,1.982l-5.162,0l0.139,-0.446c1.222,-3.911 4.571,-5.792 7.546,-4.238m-58.747,0.145c2.384,1.08 3.421,3.393 3.412,7.608c-0.013,6.044 -2.838,9.053 -7.55,8.043c-5.802,-1.244 -6.222,-14.464 -0.505,-15.919c1.097,-0.279 3.776,-0.124 4.643,0.268m124.23,-0.008c4.634,2.179 4.781,12.915 0.209,15.24c-2.393,1.217 -5.715,0.548 -7.228,-1.456c-2.368,-3.134 -2.054,-10.722 0.539,-13.038c1.326,-1.185 4.716,-1.575 6.48,-0.746m27.255,20.173c1.459,0.825 1.308,3.247 -0.27,4.328c-2.337,1.601 -8.271,1.905 -10.368,0.53c-1.883,-1.234 -1.367,-4.133 0.884,-4.962c1.054,-0.388 9.033,-0.303 9.754,0.104" fill="#040404" fill-rule="evenodd"/>
 </g>

</svg>